<?xml version="1.0" standalone="no"?>
<!DOCTYPE svg PUBLIC "-//W3C//DTD SVG 20010904//EN"
 "http://www.w3.org/TR/2001/REC-SVG-20010904/DTD/svg10.dtd">
<svg version="1.0" xmlns="http://www.w3.org/2000/svg"
 width="256.000000pt" height="256.000000pt" viewBox="0 0 256.000000 256.000000"
 preserveAspectRatio="xMidYMid meet">
<metadata>
Created by potrace 1.11, written by Peter Selinger 2001-2013
</metadata>
<g transform="translate(0.000000,256.000000) scale(0.100000,-0.100000)"
fill="#000000" stroke="none">
<path d="M808 2235 c-2 -1 -73 -5 -158 -9 -283 -10 -344 -18 -415 -50 -112
-51 -179 -162 -210 -351 -28 -174 -28 -903 1 -1095 35 -232 139 -351 327 -375
23 -3 60 -7 82 -10 216 -26 1359 -26 1705 0 146 11 219 42 289 121 99 113 125
282 126 809 0 467 -18 634 -85 766 -26 50 -86 106 -145 134 -55 26 -81 32
-200 40 -44 4 -105 8 -135 11 -61 5 -1177 14 -1182 9z"/>
</g>
</svg>
